<svg width="16" height="17" viewBox="0 0 16 17" fill="none" xmlns="http://www.w3.org/2000/svg">
<path d="M12.8833 7.22119C12.8833 7.22119 12.5213 11.7112 12.3113 13.6025C12.2113 14.5059 11.6533 15.0352 10.7393 15.0519C8.99994 15.0832 7.25861 15.0852 5.51994 15.0485C4.64061 15.0305 4.09194 14.4945 3.99394 13.6072C3.78261 11.6992 3.42261 7.22119 3.42261 7.22119" stroke="black" stroke-linecap="round" stroke-linejoin="round"/>
<path d="M13.8055 5.06885H2.50012" stroke="black" stroke-linecap="round" stroke-linejoin="round"/>
<path d="M11.627 5.06886C11.1037 5.06886 10.653 4.69886 10.5503 4.18619L10.3883 3.37553C10.2883 3.00153 9.94968 2.74286 9.56368 2.74286H6.74168C6.35568 2.74286 6.01701 3.00153 5.91701 3.37553L5.75501 4.18619C5.65234 4.69886 5.20168 5.06886 4.67834 5.06886" stroke="black" stroke-linecap="round" stroke-linejoin="round"/>
</svg>
